
        <svg xmlns="http://www.w3.org/2000/svg" xmlns:xlink="http://www.w3.org/1999/xlink" version="1.1" width="3159.995571186303" height="785.2697488472193" viewBox="0 0 3159.995571186303 785.2697488472193">
			
			<g transform="scale(7.999778559315164) translate(10, 10)">
				<defs id="SvgjsDefs1454"/><g id="SvgjsG1455" featureKey="nRdZyp-0" transform="matrix(1.0707045989430997,0,0,1.0707045989430997,-8.887684659195651,-29.44437647093524)" fill="#000"><path xmlns="http://www.w3.org/2000/svg" style="" d="M 34.800781 27.5 C 28.500781 27.5 23.300781 32.7 23.300781 39 L 23.300781 42.5 L 9.8007812 42.5 C 9.0007812 42.5 8.3007812 43.2 8.3007812 44 C 8.3007812 44.8 9.0007812 45.5 9.8007812 45.5 L 23.300781 45.5 L 23.300781 52.5 L 9.8007812 52.5 C 9.0007812 52.5 8.3007812 53.2 8.3007812 54 C 8.3007812 54.8 9.0007812 55.5 9.8007812 55.5 L 23.300781 55.5 L 23.300781 62.5 L 9.8007812 62.5 C 9.0007812 62.5 8.3007812 63.2 8.3007812 64 C 8.3007812 64.8 9.0007812 65.5 9.8007812 65.5 L 23.300781 65.5 L 23.300781 72.5 L 9.8007812 72.5 C 9.0007812 72.5 8.3007812 73.2 8.3007812 74 C 8.3007812 74.8 9.0007812 75.5 9.8007812 75.5 L 23.300781 75.5 L 23.300781 82.5 L 9.8007812 82.5 C 9.0007812 82.5 8.3007812 83.2 8.3007812 84 C 8.3007812 84.8 9.0007812 85.5 9.8007812 85.5 L 23.300781 85.5 L 23.300781 89 C 23.300781 95.3 28.500781 100.5 34.800781 100.5 L 93.199219 100.5 C 99.499219 100.5 104.69922 95.3 104.69922 89 L 104.69922 85.5 L 104.80078 85.5 L 119.80078 85.5 C 120.60078 85.5 121.30078 84.8 121.30078 84 C 121.30078 83.2 120.60078 82.5 119.80078 82.5 L 104.80078 82.5 L 104.69922 82.5 L 104.69922 75.5 L 104.80078 75.5 L 119.80078 75.5 C 120.60078 75.5 121.30078 74.8 121.30078 74 C 121.30078 73.2 120.60078 72.5 119.80078 72.5 L 104.80078 72.5 L 104.69922 72.5 L 104.69922 65.5 L 104.80078 65.5 L 119.80078 65.5 C 120.60078 65.5 121.30078 64.8 121.30078 64 C 121.30078 63.2 120.60078 62.5 119.80078 62.5 L 104.80078 62.5 L 104.69922 62.5 L 104.69922 55.5 L 104.80078 55.5 L 119.80078 55.5 C 120.60078 55.5 121.30078 54.8 121.30078 54 C 121.30078 53.2 120.60078 52.5 119.80078 52.5 L 104.80078 52.5 L 104.69922 52.5 L 104.69922 45.5 L 104.80078 45.5 L 119.80078 45.5 C 120.60078 45.5 121.30078 44.8 121.30078 44 C 121.30078 43.2 120.60078 42.5 119.80078 42.5 L 104.80078 42.5 L 104.69922 42.5 L 104.69922 39 C 104.69922 32.7 99.499219 27.5 93.199219 27.5 L 34.800781 27.5 z M 34.800781 30.5 L 93.199219 30.5 C 97.899219 30.5 101.69922 34.3 101.69922 39 L 101.69922 89 C 101.69922 93.7 97.899219 97.5 93.199219 97.5 L 34.800781 97.5 C 30.100781 97.5 26.300781 93.7 26.300781 89 L 26.300781 39 C 26.300781 34.3 30.100781 30.5 34.800781 30.5 z M 44.800781 43 C 41.200781 43 38.300781 45.9 38.300781 49.5 C 38.300781 52.6 40.500781 55.100781 43.300781 55.800781 L 43.300781 79 C 43.300781 79.8 44.000781 80.5 44.800781 80.5 L 77.400391 80.5 C 77.900391 83.6 80.600781 86 83.800781 86 C 87.400781 86 90.300781 83.1 90.300781 79.5 C 90.300781 75.9 87.400781 73 83.800781 73 C 80.900781 73 78.499609 74.9 77.599609 77.5 L 46.300781 77.5 L 46.300781 55.800781 C 49.200781 55.100781 51.300781 52.5 51.300781 49.5 C 51.300781 45.9 48.400781 43 44.800781 43 z M 83.800781 43 C 80.200781 43 77.300781 45.9 77.300781 49.5 C 77.300781 50.3 77.399219 50.999219 77.699219 51.699219 L 68.300781 57.800781 C 67.100781 56.700781 65.600781 56 63.800781 56 C 60.200781 56 57.300781 58.9 57.300781 62.5 C 57.300781 66.1 60.200781 69 63.800781 69 C 67.400781 69 70.300781 66.1 70.300781 62.5 C 70.300781 61.7 70.200391 61.000781 69.900391 60.300781 L 79.300781 54.199219 C 80.500781 55.299219 82.000781 56 83.800781 56 C 87.400781 56 90.300781 53.1 90.300781 49.5 C 90.300781 45.9 87.400781 43 83.800781 43 z M 44.800781 46 C 46.700781 46 48.300781 47.6 48.300781 49.5 C 48.300781 51.4 46.700781 53 44.800781 53 C 42.900781 53 41.300781 51.4 41.300781 49.5 C 41.300781 47.6 42.900781 46 44.800781 46 z M 83.800781 46 C 85.700781 46 87.300781 47.6 87.300781 49.5 C 87.300781 51.4 85.800781 53 83.800781 53 C 81.800781 53 80.300781 51.4 80.300781 49.5 C 80.300781 47.6 81.900781 46 83.800781 46 z M 63.800781 59 C 65.700781 59 67.300781 60.6 67.300781 62.5 C 67.300781 64.4 65.800781 66 63.800781 66 C 61.800781 66 60.300781 64.4 60.300781 62.5 C 60.300781 60.6 61.900781 59 63.800781 59 z M 83.800781 76 C 85.700781 76 87.300781 77.6 87.300781 79.5 C 87.300781 81.4 85.800781 83 83.800781 83 C 81.800781 83 80.300781 81.4 80.300781 79.5 C 80.300781 77.6 81.900781 76 83.800781 76 z " stroke="none"/></g><g id="SvgjsG1456" featureKey="Q4qmbg-0" transform="matrix(3.365510698584779,0,0,3.365510698584779,143.57683460793177,-11.442997087636055)" fill="#000"><path d="M10.82 15.08 l0 0.66 l-7.04 0 c0 1.16 1.18 1.98 2.16 1.98 c0.96 0 1.84 -0.38 2.3 -1.22 l1.98 1.82 c-0.8 1.08 -2.02 1.84 -4.28 1.84 c-3.24 0 -5.22 -2.16 -5.22 -5.08 s1.92 -5.1 5.04 -5.1 s5.06 2.14 5.06 5.1 z M3.84 13.86 l3.88 0 c-0.16 -0.94 -0.84 -1.44 -1.96 -1.44 c-1.08 0 -1.74 0.58 -1.92 1.44 z M19.407708333333332 10.12 l0 2.18 l-4.06 5.26 l4.06 0 l0 2.44 l-7.52 0 l0 -2.28 l4.04 -5.16 l-4.04 0 l0 -2.44 l7.52 0 z M31.51541666666666 15.08 c0 2.92 -1.94 5.08 -4.84 5.08 c-0.6 0 -1.78 -0.36 -2.24 -0.82 l0 5.3 l-2.96 0 l0 -14.52 l2.96 0 l0 0.7 c0.42 -0.5 1.18 -0.84 2.04 -0.84 c2.9 0 5.04 2.18 5.04 5.1 z M28.535416666666663 15.08 c0 -1.58 -1.02 -2.86 -2.26 -2.86 c-0.76 0 -1.5 0.56 -1.9 1.36 c-0.18 0.4 -0.32 0.96 -0.32 1.5 c0 0.56 0.12 1.06 0.32 1.48 c0.42 0.82 1.12 1.36 1.9 1.36 c1.24 0 2.26 -1.28 2.26 -2.84 z M37.983124999999994 9.98 c2.9 0 4.82 2.18 4.82 5.1 s-2.12 5.08 -5.02 5.08 c-0.64 0 -1.72 -0.36 -2.04 -0.82 l0 0.66 l-2.96 0 l0 -14.52 l2.96 0 l0 5.34 c0.34 -0.5 1.62 -0.84 2.24 -0.84 z M37.583124999999995 17.92 c1.24 0 2.26 -1.28 2.26 -2.84 c0 -1.58 -1.02 -2.86 -2.26 -2.86 c-1.36 0 -2.24 1.54 -2.24 2.86 s0.9 2.84 2.24 2.84 z M46.53083333333333 13.04 l-2.2 -1.26 c1.1 -1.24 2.58 -1.82 4.12 -1.82 c2.96 0 4.16 1.62 4.16 3.14 l0 6.9 l-2.96 0 l0 -0.7 c-0.46 0.48 -1.28 0.84 -2.2 0.84 c-2.7 0 -3.74 -1.2 -3.74 -3.04 c0 -2.08 1.68 -3.48 4.4 -3.48 l1.54 0 c0 -0.74 -0.56 -1.22 -1.4 -1.22 c-0.86 0 -1.28 0.16 -1.72 0.64 z M49.65083333333333 16.740000000000002 l0 -0.88 l-1.74 0 c-0.78 0 -1.36 0.54 -1.24 1.3 c0.08 0.54 0.56 0.76 1.24 0.76 c1.3 0 1.74 -0.74 1.74 -1.18 z M60.87854166666666 10.26 l-0.4 2.22 c-0.74 -0.32 -0.88 -0.26 -1.22 -0.26 c-1.2 0 -1.9 0.64 -1.9 2.22 l0 5.56 l-2.96 0 l0 -9.88 l2.96 0 l0 0.88 c0.38 -0.68 1.42 -1.02 2.08 -1.02 c0.62 0 0.98 0.02 1.44 0.28 z M63.76624999999999 13.24 c0 1.18 5 0.62 5 3.74 c0 2.04 -1.8 3.18 -4.04 3.18 c-1.42 0 -2.84 -0.7 -3.96 -1.82 l1.94 -1.94 c0.56 0.68 1.36 1.2 2.02 1.26 s1.22 -0.22 1.32 -0.52 c0.24 -0.76 -1.14 -0.8 -1.56 -0.92 c-1.58 -0.48 -3.42 -1.14 -3.42 -3.1 c0 -2.34 2.44 -3.14 3.66 -3.14 c1.4 0 2.82 0.64 3.96 1.8 l-1.92 1.92 c-0.52 -0.68 -1.42 -1.22 -2.04 -1.22 c-0.32 0 -0.96 0.12 -0.96 0.76 z"/></g>
			</g>
		</svg>
	