<?xml version="1.0" standalone="no"?>
<!DOCTYPE svg PUBLIC "-//W3C//DTD SVG 20010904//EN"
 "http://www.w3.org/TR/2001/REC-SVG-20010904/DTD/svg10.dtd">
<svg version="1.0" xmlns="http://www.w3.org/2000/svg"
 width="700.000000pt" height="700.000000pt" viewBox="0 0 700.000000 700.000000"
 preserveAspectRatio="xMidYMid meet">
<metadata>
Created by potrace 1.14, written by Peter Selinger 2001-2017
</metadata>
<g transform="translate(0.000000,700.000000) scale(0.100000,-0.100000)"
fill="#000000" stroke="none">
<path d="M1587 6404 c-1 -1 -24 -5 -52 -8 -291 -38 -542 -282 -595 -576 -7
-36 -12 -127 -13 -202 -1 -89 -5 -138 -11 -139 -6 0 -198 -1 -426 -1 -260 0
-422 -4 -435 -11 -50 -26 -66 -72 -43 -122 25 -54 31 -55 491 -55 l424 0 0
-215 0 -215 -424 0 c-454 0 -467 -1 -493 -50 -20 -36 4 -110 40 -127 8 -3 202
-8 430 -9 228 -1 422 -2 431 -3 15 -1 16 -25 16 -215 l-1 -215 -427 0 c-292 0
-434 -3 -448 -11 -57 -30 -64 -105 -15 -151 l25 -23 427 -2 c235 -1 430 -2
433 -3 4 0 6 -97 5 -213 l-1 -213 -426 -1 c-389 0 -429 -2 -453 -18 -56 -36
-58 -109 -4 -149 26 -20 42 -20 456 -20 l428 0 1 -214 c0 -117 -2 -214 -6
-214 -3 -1 -198 -2 -433 -3 l-427 -1 -31 -30 c-28 -26 -31 -35 -27 -69 3 -21
15 -48 27 -60 20 -21 29 -21 459 -24 l438 -3 0 -133 c1 -160 7 -205 37 -302
78 -245 298 -435 555 -479 60 -11 446 -13 1931 -13 1889 1 1950 2 2025 36 11
6 42 20 70 32 177 79 327 253 382 444 26 90 31 134 32 299 l1 117 475 0 c326
0 482 3 498 11 23 10 38 32 50 70 7 23 -19 76 -45 90 -18 10 -130 13 -498 14
l-475 0 -5 145 c-3 80 -4 177 -2 216 l4 71 451 1 c249 0 466 1 483 1 35 1 81
40 86 74 6 35 -11 74 -40 93 -25 16 -66 18 -504 18 l-478 0 -1 33 c0 18 0 62
0 98 0 36 0 118 0 183 l1 118 471 -1 c342 0 479 3 500 12 32 13 62 63 53 90
-14 43 -28 62 -55 73 -20 9 -162 12 -499 12 -354 0 -470 2 -470 11 -3 103 1
411 5 415 3 3 218 6 478 7 508 0 504 0 531 53 18 36 11 71 -20 102 l-24 25
-485 3 -485 3 -1 54 c0 30 0 84 0 120 0 36 0 108 0 160 l1 94 485 3 485 3 25
26 c47 46 26 133 -36 149 -13 4 -234 6 -492 6 l-467 -1 0 30 c-1 17 -1 81 -2
143 -1 236 -62 394 -207 542 -102 103 -228 173 -363 202 -38 7 -593 11 -1926
12 -1031 1 -1874 0 -1875 0z m3753 -195 c80 -13 189 -64 254 -121 85 -74 158
-208 172 -316 7 -58 7 -3228 0 -3261 -49 -224 -223 -394 -437 -426 -53 -8
-3706 -9 -3766 -1 -208 28 -400 207 -440 413 -4 21 -8 769 -8 1663 0 1567 1
1627 19 1680 32 93 63 147 126 213 65 70 167 130 262 152 70 17 3715 21 3818
4z"/>
<path d="M2180 5440 c-71 -13 -158 -61 -210 -116 -133 -140 -152 -335 -50
-494 17 -26 46 -61 66 -79 38 -35 137 -91 160 -91 8 0 14 -6 15 -12 0 -7 2
-332 3 -723 2 -390 4 -718 4 -728 1 -10 14 -29 28 -42 l27 -25 1021 0 1021 0
28 -75 c37 -99 112 -182 206 -227 57 -28 78 -33 153 -35 99 -2 155 12 234 62
115 74 183 201 179 341 -2 85 -9 113 -48 187 -121 232 -447 278 -633 89 -28
-28 -62 -75 -76 -104 l-26 -53 -966 0 -966 -1 0 673 c0 556 2 673 13 673 32 0
138 64 180 109 203 217 120 561 -158 655 -54 19 -151 26 -205 16z m137 -189
c50 -14 109 -64 132 -112 29 -60 23 -154 -12 -208 -58 -87 -171 -124 -260 -86
-91 38 -148 141 -133 237 20 122 149 202 273 169z m2436 -1865 c135 -56 171
-238 68 -343 -89 -92 -228 -89 -315 7 -109 120 -49 303 114 350 34 10 91 4
133 -14z"/>
<path d="M4593 5439 c-136 -26 -254 -125 -303 -256 -25 -65 -30 -197 -11 -246
12 -31 54 0 -383 -283 l-189 -123 -36 29 c-242 194 -618 24 -638 -288 -13
-194 102 -361 286 -416 70 -21 190 -15 262 13 81 31 170 115 211 199 29 61 32
76 33 162 0 52 -3 107 -7 121 -8 26 2 33 279 214 230 150 291 185 303 176 46
-34 120 -73 155 -82 318 -88 603 223 486 530 -67 178 -261 286 -448 250z m138
-189 c50 -14 114 -72 134 -122 74 -184 -119 -364 -295 -274 -133 68 -158 238
-50 345 56 55 130 73 211 51z m-1210 -815 c80 -40 123 -109 122 -195 0 -151
-144 -251 -287 -199 -90 33 -139 104 -139 199 0 158 166 265 304 195z"/>
</g>
</svg>
